<svg width="55" height="55" viewBox="0 0 55 55" fill="none" xmlns="http://www.w3.org/2000/svg">
<path d="M27.5 55C42.6878 55 55 42.6878 55 27.5C55 12.3122 42.6878 0 27.5 0C12.3122 0 0 12.3122 0 27.5C0 42.6878 12.3122 55 27.5 55Z" fill="#F0F0F0"/>
<path d="M46.7433 7.85727C41.7833 2.9975 34.9923 0 27.4999 0C25.1086 0 18.1119 2.9975 13.1521 7.85727H46.7433Z" fill="#6DA544"/>
<path d="M27.4999 23.5715H54.7193C54.3225 20.7973 53.5122 18.1569 52.3519 15.7144H26.3043L27.4999 23.5715Z" fill="#6DA544"/>
<path d="M2.64799 39.2859H52.3519C53.5122 36.8434 54.3225 34.2028 54.7193 31.4286H0.280518C0.677441 34.2029 1.48751 36.8435 2.64799 39.2859Z" fill="#6DA544"/>
<path d="M8.25659 47.1427C13.2166 52.0025 20.0076 55 27.4999 55C34.9923 55 41.7833 52.0025 46.7433 47.1427H8.25659Z" fill="#6DA544"/>
<path d="M27.4999 0C13.6462 0 2.18704 10.2449 0.280518 23.5715H27.4999V0Z" fill="#D80027"/>
<path d="M13.75 21.0834L12.5544 18.6921V13.9095L15.5435 11.5182L18.5326 13.9095V17.4964L19.7282 16.3008V18.6921L17.3369 21.0834H13.75Z" fill="#F0F0F0"/>
<path d="M7.31919 13.75L7.63576 14.7243H8.66014L7.83138 15.3266L8.14806 16.3008L7.31919 15.6986L6.49032 16.3008L6.807 15.3266L5.97824 14.7243H7.00262L7.31919 13.75Z" fill="#F0F0F0"/>
<path d="M9.71052 11.3586L10.0271 12.333H11.0516L10.2227 12.9353L10.5393 13.9095L9.71052 13.3074L8.88176 13.9095L9.19843 12.9353L8.36957 12.333H9.39383L9.71052 11.3586Z" fill="#F0F0F0"/>
<path d="M12.1018 8.96741L12.4184 9.94172H13.4427L12.614 10.544L12.9305 11.5182L12.1018 10.9161L11.273 11.5182L11.5895 10.544L10.7609 9.94172H11.7852L12.1018 8.96741Z" fill="#F0F0F0"/>
<path d="M23.7678 13.75L23.4512 14.7243H22.4269L23.2556 15.3266L22.939 16.3008L23.7678 15.6986L24.5966 16.3008L24.28 15.3266L25.1087 14.7243H24.0844L23.7678 13.75Z" fill="#F0F0F0"/>
<path d="M21.3764 11.3586L21.0599 12.333H20.0356L20.8642 12.9353L20.5477 13.9095L21.3764 13.3074L22.2053 13.9095L21.8886 12.9353L22.7174 12.333H21.6931L21.3764 11.3586Z" fill="#F0F0F0"/>
<path d="M18.9852 8.96741L18.6685 9.94172H17.6443L18.4729 10.544L18.1563 11.5182L18.9852 10.9161L19.814 11.5182L19.4974 10.544L20.326 9.94172H19.3018L18.9852 8.96741Z" fill="#F0F0F0"/>
<path d="M15.5435 7.77173L15.2268 8.74604H14.2026L15.0312 9.34825L14.7147 10.3225L15.5435 9.72036L16.3723 10.3225L16.0557 9.34825L16.8844 8.74604H15.8601L15.5435 7.77173Z" fill="#F0F0F0"/>
</svg>
