<svg width="55" height="55" viewBox="0 0 55 55" fill="none" xmlns="http://www.w3.org/2000/svg">
<path d="M39.4565 2.72873C35.8411 0.980547 31.7851 0 27.5 0C23.2149 0 19.1589 0.980547 15.5435 2.72873L13.1522 27.5L15.5435 52.2713C19.1589 54.0195 23.2149 55 27.5 55C31.7851 55 35.8411 54.0195 39.4565 52.2713L41.8478 27.5L39.4565 2.72873Z" fill="#D80027"/>
<path d="M15.5435 2.72974C6.34498 7.17775 0 16.5975 0 27.5C0 38.4026 6.34498 47.8223 15.5435 52.2703V2.72974Z" fill="black"/>
<path d="M39.4565 2.72974V52.2703C48.6551 47.8223 55.0001 38.4026 55.0001 27.5C55.0001 16.5975 48.6551 7.17775 39.4565 2.72974Z" fill="#496E2D"/>
<path d="M27.5 17.9348C22.2172 17.9348 17.9348 22.2173 17.9348 27.5C17.9348 32.7827 22.2173 37.0651 27.5 37.0651C32.7827 37.0651 37.0651 32.7827 37.0651 27.5C37.0651 22.2173 32.7828 17.9348 27.5 17.9348ZM27.5 33.4782C24.1983 33.4782 21.5217 30.8016 21.5217 27.5C21.5217 24.1984 24.1984 21.5217 27.5 21.5217C30.8016 21.5217 33.4782 24.1984 33.4782 27.5C33.4782 30.8016 30.8017 33.4782 27.5 33.4782Z" fill="#FFDA44"/>
<path d="M27.5 23.9131C26.1792 23.9131 25.1086 24.9837 25.1086 26.3044V29.8913H29.8913V26.3044C29.8913 24.9837 28.8207 23.9131 27.5 23.9131Z" fill="#FFDA44"/>
</svg>
