<svg width="55" height="55" viewBox="0 0 55 55" fill="none" xmlns="http://www.w3.org/2000/svg">
<path d="M39.4565 2.72873C35.8411 0.980547 31.7851 0 27.5 0C23.215 0 19.1589 0.980547 15.5435 2.72873L13.1522 27.5L15.5435 52.2713C19.1589 54.0195 23.215 55 27.5 55C31.7851 55 35.8411 54.0195 39.4565 52.2713L41.8478 27.5L39.4565 2.72873Z" fill="#FFDA44"/>
<path d="M15.5435 2.72974C6.34498 7.17765 0 16.5974 0 27.5C0 38.4027 6.34498 47.8224 15.5435 52.2703V2.72974Z" fill="#0052B4"/>
<path d="M39.4565 2.72974V52.2703C48.655 47.8224 55 38.4026 55 27.5C55 16.5975 48.655 7.17765 39.4565 2.72974Z" fill="#0052B4"/>
<path d="M35.8696 16.7391L37.4737 17.5411L35.8696 16.7391L34.2653 15.9371C34.1686 16.1306 32.074 20.3923 31.7319 26.9022H29.2935V16.7391L27.5 14.3478L25.7065 16.7391V26.9022H23.2681C22.9259 20.3923 20.8314 16.1306 20.7346 15.9371L17.5263 17.5412C17.5484 17.5853 19.7283 22.0223 19.7283 28.6957V30.4892H25.7066V40.6523H29.2935V30.4892H35.2718V28.6956C35.2718 25.2454 35.8687 22.4004 36.3696 20.6213C36.9156 18.6813 37.4702 17.5483 37.4757 17.537L35.8696 16.7391Z" fill="black"/>
</svg>
