<svg width="55" height="55" viewBox="0 0 55 55" fill="none" xmlns="http://www.w3.org/2000/svg">
<path d="M27.5 55C42.6878 55 55 42.6878 55 27.5C55 12.3122 42.6878 0 27.5 0C12.3122 0 0 12.3122 0 27.5C0 42.6878 12.3122 55 27.5 55Z" fill="#FCFCFC"/>
<path d="M11.3587 25.5072L8.36954 20.0842L11.3587 14.7463L14.3478 20.0842L11.3587 25.5072Z" fill="#A2001D"/>
<path d="M5.38042 25.5072L2.3913 20.0842L5.38042 14.7463L8.36954 20.0842L5.38042 25.5072Z" fill="#A2001D"/>
<path d="M11.3587 40.2537L8.36954 34.8307L11.3587 29.4928L14.3478 34.8307L11.3587 40.2537Z" fill="#A2001D"/>
<path d="M5.38042 40.2537L2.3913 34.8307L5.38042 29.4928L8.36954 34.8307L5.38042 40.2537Z" fill="#A2001D"/>
<path d="M14.3478 5.33799L13.5015 3.82678C11.9836 4.72612 10.56 5.76736 9.24823 6.93224L11.3586 10.7609L14.3478 5.33799Z" fill="#A2001D"/>
<path d="M11.3586 44.239L9.22589 48.0478C10.5364 49.2142 11.9591 50.257 13.4764 51.1582L14.3479 49.577L11.3586 44.239Z" fill="#A2001D"/>
<path d="M16.7391 34.674V52.8135C20.0444 54.2204 23.681 55 27.5 55C39.324 55 49.404 47.5372 53.2895 37.0652L16.7391 34.674Z" fill="#6DA544"/>
<path d="M53.2895 37.0652C54.395 34.086 55 30.8638 55 27.5C55 12.3123 42.6877 0 27.5 0C23.6813 0 20.0444 0.779131 16.7391 2.18582V37.0653H53.2895V37.0652Z" fill="#A2001D"/>
</svg>
