<svg width="55" height="55" viewBox="0 0 55 55" fill="none" xmlns="http://www.w3.org/2000/svg">
<path d="M27.5 55C42.6878 55 55 42.6878 55 27.5C55 12.3122 42.6878 0 27.5 0C12.3122 0 0 12.3122 0 27.5C0 42.6878 12.3122 55 27.5 55Z" fill="#6DA544"/>
<path d="M27.5 10.7609L50.2174 27.5L27.5 44.2391L4.78265 27.5L27.5 10.7609Z" fill="#FFDA44"/>
<path d="M27.5 37.0651C32.7827 37.0651 37.0651 32.7827 37.0651 27.5C37.0651 22.2173 32.7827 17.9348 27.5 17.9348C22.2173 17.9348 17.9348 22.2173 17.9348 27.5C17.9348 32.7827 22.2173 37.0651 27.5 37.0651Z" fill="#F0F0F0"/>
<path d="M22.7174 26.9022C21.0541 26.9022 19.4489 27.1552 17.9379 27.6246C18.0048 32.8496 22.2591 37.0653 27.5 37.0653C30.7407 37.0653 33.6029 35.4521 35.3331 32.9867C32.3729 29.281 27.8181 26.9022 22.7174 26.9022Z" fill="#0052B4"/>
<path d="M36.8879 29.3326C37.0031 28.7392 37.0653 28.127 37.0653 27.5C37.0653 22.2172 32.7828 17.9348 27.5001 17.9348C23.5584 17.9348 20.1746 20.3197 18.7102 23.7247C20.0046 23.4565 21.3448 23.3153 22.7176 23.3153C28.2731 23.3151 33.299 25.6245 36.8879 29.3326Z" fill="#0052B4"/>
</svg>
