<svg width="77" height="64" viewBox="0 0 77 64" fill="none" xmlns="http://www.w3.org/2000/svg">
<path d="M38.3993 51.2001C47.2359 51.2001 54.3993 44.0366 54.3993 35.2001C54.3993 26.3636 47.2359 19.2002 38.3993 19.2002C29.5628 19.2002 22.3994 26.3636 22.3994 35.2001C22.3994 44.0366 29.5628 51.2001 38.3993 51.2001Z" fill="white"/>
<path d="M70.3994 9.59993H60.2511C58.9683 9.59993 57.7637 9.09998 56.8559 8.19369L51.0059 2.34373C49.495 0.832794 47.4856 0 45.3481 0H31.4513C29.3138 0 27.3044 0.832794 25.7935 2.34373L19.9435 8.19369C19.0358 9.09998 17.8311 9.59993 16.5483 9.59993H6.4C2.87023 9.59993 0 12.4702 0 15.9998V57.5994C0 61.129 2.87023 63.9994 6.4 63.9994H70.3996C73.9292 63.9994 76.7996 61.1292 76.7996 57.5994V15.9998C76.7994 12.4702 73.9292 9.59993 70.3994 9.59993ZM38.3997 54.3995C27.8123 54.3995 19.1999 45.787 19.1999 35.1996C19.1999 24.6123 27.8123 15.9998 38.3997 15.9998C48.9871 15.9998 57.5996 24.6123 57.5996 35.1996C57.5996 45.787 48.9871 54.3995 38.3997 54.3995ZM63.9996 25.5997C62.2356 25.5997 60.7996 24.1638 60.7996 22.3998C60.7996 20.6358 62.2356 19.1999 63.9996 19.1999C65.7635 19.1999 67.1995 20.6358 67.1995 22.3998C67.1995 24.1638 65.7635 25.5997 63.9996 25.5997Z" fill="white"/>
</svg>
