<svg width="240" height="240" viewBox="0 0 240 240" fill="none" xmlns="http://www.w3.org/2000/svg">
<path d="M45.4707 211.688C45.4707 215.626 48.6582 218.813 52.5957 218.813H189.424C193.361 218.813 196.549 215.626 196.549 211.688L198.518 179.438H43.4082L45.4707 211.688Z" fill="white"/>
<path d="M240 61.3613C240 48.0488 229.172 37.2676 215.906 37.2676C202.594 37.2676 191.812 48.0957 191.812 61.3613C191.812 69.0488 195.469 75.9394 201.094 80.3457L155.859 113.252L130.125 67.2676C138.047 63.3301 143.484 55.127 143.484 45.7051C143.484 32.3926 132.656 21.6113 119.391 21.6113C106.125 21.6113 95.2969 32.4395 95.2969 45.7051C95.2969 55.2676 100.875 63.5176 108.938 67.4082L85.1719 113.299L38.7656 78.7051C44.4844 74.2988 48.1875 67.3613 48.1875 59.6269C48.1875 46.3145 37.3594 35.5332 24.0938 35.5332C10.8281 35.5332 0 46.3145 0 59.6269C0 70.9707 7.875 80.4863 18.4219 83.0645L39.7031 165.236H201.938L221.625 84.752C232.172 82.1738 240 72.6582 240 61.3613Z" fill="white"/>
</svg>
