<svg width="54" height="37" viewBox="0 0 54 37" fill="none" xmlns="http://www.w3.org/2000/svg">
<path d="M19.6442 26.9162C17.4085 24.8695 15.9905 21.874 15.9905 18.548C15.9905 12.3758 20.8655 7.35489 26.8583 7.35489C27.645 7.35489 28.4005 7.44018 29.1354 7.60008L30.6776 4.45534C29.4356 4.26346 28.1521 4.15686 26.848 4.15686C12.5956 4.15686 1.22065 16.9383 0.744532 17.482C0.216667 18.0896 0.216667 19.0064 0.744532 19.614C1.10679 20.0298 7.91729 27.6837 17.5224 31.2016L19.6442 26.9162Z" fill="#DBDCEA"/>
<path d="M52.9617 17.482C52.5995 17.0662 45.6855 9.29502 35.9562 5.81982L33.8861 10.0199C36.2357 12.0773 37.7158 15.1368 37.7158 18.548C37.7158 24.7202 32.8408 29.7411 26.8479 29.7411C25.9785 29.7411 25.1401 29.6345 24.3328 29.4426L22.7803 32.598C24.1051 32.8112 25.461 32.9392 26.8479 32.9392C41.1003 32.9392 52.4753 20.1577 52.9514 19.614C53.4793 19.017 53.4793 18.0896 52.9617 17.482Z" fill="#DBDCEA"/>
<path d="M20.679 24.8054L27.5413 10.8406C26.8789 10.6381 26.1854 10.5315 25.4712 10.5315C21.1862 10.5315 17.7085 14.1133 17.7085 18.5266C17.7085 21.0744 18.8677 23.345 20.679 24.8054Z" fill="#DBDCEA"/>
<path d="M29.2698 19.4327L25.7817 26.5111C29.4768 26.3618 32.4887 23.5369 33.0994 19.8698C31.7021 20.3388 30.3462 20.1043 29.2698 19.4327Z" fill="#DBDCEA"/>
<path d="M16.9634 34.8366L33.7516 0.702933C34.0621 0.0739856 34.8073 -0.181858 35.418 0.137946L35.9976 0.43643C36.6083 0.756233 36.8567 1.52376 36.5462 2.15271L19.758 36.2971C19.4474 36.926 18.7022 37.1819 18.0916 36.8621L17.5119 36.5636C16.9013 36.2438 16.6632 35.4656 16.9634 34.8366Z" fill="#DBDCEA"/>
</svg>
