<svg width="56" height="54" viewBox="0 0 56 54" fill="none" xmlns="http://www.w3.org/2000/svg">
<path d="M55.8535 20.1013C55.4848 18.9772 54.479 18.1813 53.2938 18.075L37.1283 16.6201L30.7396 1.79246C30.2679 0.703093 29.1946 0 28 0C26.8054 0 25.7317 0.703093 25.2631 1.79246L18.8743 16.6201L2.70625 18.075C1.52105 18.1834 0.517437 18.9793 0.146582 20.1013C-0.222137 21.2254 0.118383 22.4583 1.01476 23.2376L13.2346 33.8599L9.63159 49.5914C9.36798 50.7481 9.82086 51.9442 10.789 52.638C11.3094 53.0128 11.9208 53.2 12.5343 53.2C13.0616 53.2 13.5892 53.0611 14.0605 52.7815L28 44.5189L41.937 52.7815C42.9594 53.3872 44.245 53.3317 45.2111 52.638C46.1792 51.9442 46.6321 50.7481 46.3685 49.5914L42.7655 33.8599L54.9853 23.2376C55.8813 22.4583 56.2222 21.2279 55.8535 20.1013Z" fill="#FBBC39"/>
</svg>
