<svg width="30" height="45" viewBox="0 0 30 45" fill="none" xmlns="http://www.w3.org/2000/svg">
<path d="M29.5652 15.6957L16.4395 0.667903C16.1051 0.25046 15.6035 -1.25858e-06 15.0183 -1.30975e-06C14.433 -1.36091e-06 13.9314 0.25046 13.597 0.667902L0.471368 15.6957C-0.030248 16.2801 -0.113849 17.0315 0.136958 17.6994C0.471369 18.3673 1.14019 18.7848 1.80902 18.7848L9.33327 18.7848L9.33327 43.1633C9.33327 44.1651 10.1693 45 11.1725 45L18.6968 45C19.7 45 20.536 44.1651 20.536 43.1633L20.536 18.7848L28.0603 18.7848C28.8127 18.7848 29.4815 18.3673 29.7324 17.6994C30.1504 17.0315 30.0668 16.1967 29.5652 15.6957Z" fill="white"/>
</svg>
