<svg width="31" height="41" viewBox="0 0 31 41" fill="none" xmlns="http://www.w3.org/2000/svg">
<path d="M29.7698 9.5015H25.1079V9.1957C25.1079 4.12514 20.9828 0 15.9122 0H15.1385C10.0679 0 5.94278 4.12522 5.94278 9.1957V9.5015H1.23026C0.550942 9.5015 0 10.0523 0 10.7317V39.2712C0 39.9507 0.550942 40.5014 1.23026 40.5014H29.7698C30.4493 40.5014 31 39.9506 31 39.2712V10.7317C31.0002 10.0522 30.4493 9.5015 29.7698 9.5015ZM8.84666 9.1957C8.84666 5.72646 11.6692 2.90388 15.1385 2.90388H15.9122C19.3815 2.90388 22.1917 5.72646 22.1917 9.1957L22.1899 12.2023C22.1899 13.0041 21.5482 13.6539 20.7466 13.6539C19.9447 13.6539 19.295 13.004 19.295 12.2023C19.295 12.199 19.2956 12.1956 19.2956 12.1923L19.2941 9.50159H11.7495V12.1923H11.749C11.749 12.1956 11.7495 12.199 11.7495 12.2023C11.7495 13.0041 11.0996 13.6539 10.2979 13.6539C9.49618 13.6539 8.84634 13.004 8.84634 12.2023L8.84666 9.1957Z" fill="white"/>
</svg>
